<?xml version="1.0" encoding="UTF-8"?>
<svg xmlns="http://www.w3.org/2000/svg" version="1.1" viewBox="0 0 420 135">
  <defs>
    <style>
      .cls-1 {
        fill: #231f20;
      }
    </style>
  </defs>
  <!-- Generator: Adobe Illustrator 28.7.1, SVG Export Plug-In . SVG Version: 1.2.0 Build 142)  -->
  <g>
    <g id="Layer_1">
      <g>
        <path class="cls-1" d="M11.3,94.7c0-8.4,1.7-18.4,2.6-23.6.5-4.6,6-3.9,5.5.3-.7,12,6.8,25.4,17.9,25.4s7.2-2.2,7.2-6.8c0-10.1-18.8-13.2-18.8-30.1s15.2-30.2,31.4-30.2,19.8,2.1,19.8,13.8-1.7,12.3-5.1,20.7c-6-2.6-10.6-3.4-14-3.4-6.7,0-9.6,1.7-9.6,3.9,0,3.4,5.8,6,14.7,11.4,14.9,8.9,18.6,15.2,18.6,25.1,0,18.3-15.2,31.3-36.4,31.3s-33.8-11.6-33.8-37.9Z"/>
        <path class="cls-1" d="M186.4,71.5c-5.3,41.5-17.1,61.1-34.2,61.1s-20.5-4.6-20.5-22.2,4.4-35.9,4.4-42.4-1.2-5.5-4.1-5.5c-4.3,0-9.7,9.1-9.7,35s.9,14.3,1.5,19.1c.7,2.7,1,5,1,6.7,0,6.8-3.8,8.4-15.2,8.4s-24.9-.9-24.9-8.9c.3-6.1,2.9-21,2.9-43v-28.5c0-14.9-1.2-20.3-3.2-29.9,6.8-9.4,20.2-16.6,29-16.6s8,3.4,8,11.3c0,17.3-.3,27.3-.3,49.5,5.5-21.7,15.9-35.9,31.3-35.9s20.5,6.3,20.5,22.2-5,30.1-5,39.5,1.4,4.6,3.4,4.6c3.8,0,6-5.1,9.6-24.9l5.5.3Z"/>
        <path class="cls-1" d="M279.8,71.5c-5.1,42.2-17.8,61.1-34.3,61.1s-19-4.4-19-22.2c.2-1.7.2-3.4.2-5.3-5.1,17.1-14,27.5-27.8,27.5s-21.7-8.4-21.7-23.9.5-11.1,1.4-18.1l-1.2-1.9c1.9-6.1,3.6-12.1,3.6-21.5s-2.6-19-4.1-21.9c9.2-8,21.5-14.7,32.5-14.7s9.4,3.4,9.4,9.7c0,15.2-4.8,29.9-4.8,51.1s1.2,6.3,3.9,6.3c4.4,0,8.7-7.3,8.7-31.8v-7.5c0-5.5-1.2-10.1-2.4-12.3,9.6-8.5,21.9-16.4,33.3-16.4s8,3.2,8,9.6c0,10.6-2.2,20.3-3.8,33.3-1.7,15.4-1.7,23.4,2.9,23.4s6-5.1,9.7-24.9l5.5.3Z"/>
        <path class="cls-1" d="M370.1,71.5c-5.1,41.5-14.7,61.1-34.2,61.1s-21.5-10.1-19.5-43.4c6.3-9.2,9.7-15.2,9.7-21s-1.2-5.6-4.6-5.6c-5.5,0-12.1,10.6-12.1,40.7s.3,8.9.9,12.1c.7,2.9,1.2,5.5,1.2,7.2,0,7.5-3.8,9.2-15.2,9.2s-24.9-.9-24.9-8.9c.3-6.1,2.9-21,2.9-43v-28.5c0-14.9-1.2-20.3-3.2-29.9,6.8-9.1,20.2-16.2,29-16.2s8,3.4,8,10.9c0,18.1-.3,28.4-.3,53.1,4.8-23.7,15.2-39.5,32.8-39.5s19,5,19,18.6-6.1,22.4-13.8,29.9c.5,15.5,2.6,17.8,6,17.8s9.2-4.6,13-24.9l5.5.3Z"/>
        <path class="cls-1" d="M362.3,24.7c0-11.8,17.3-22.4,30.2-22.4s12.8,4.3,12.8,11.8c0,11.8-17.3,22-29.5,22s-13.5-3.4-13.5-11.4ZM363.1,96.8l1.2-22.4c.5-6.7.5-15.2-2-18.8,7.5-9.1,23.1-16.2,31.1-16.2s9.1,2.7,9.1,13.2-1.4,13.5-4.4,24.6c-.3,4.1-.7,7.5-.7,9.9,0,5.6,1.2,8.5,5,8.5s3.8-.3,6.5-2.6c-2.7,28-10.2,39.6-24.9,39.6s-21.7-11.3-20.7-35.9Z"/>
      </g>
    </g>
  </g>
</svg>